#!OML:ASF F:\VICON\USERDATA\INSTALL\rory3\rory3.ASF
:FULLY-SPECIFIED
:DEGREES
2632
root 0.290292 15.888 -0.183989 -0.434098 0.515467 -0.515596
lowerback 13.1326 0.254726 -1.22062
upperback -0.595928 0.0884848 -0.731509
thorax -8.02235 0.0772189 -0.105647
lowerneck -15.3921 -8.02708 -11.773
upperneck 36.6176 -11.9888 9.01665
head 17.38 -5.43528 3.74346
rclavicle 4.37326e-015 6.36111e-015
rhumerus 49.2135 10.1687 -65.5426
rradius 34.3023
rwrist 44.6227
rhand -45.2889 35.1076
rfingers 7.12502
rthumb -18.0617 5.92619
lclavicle 4.37326e-015 6.36111e-015
lhumerus 48.676 -12.4041 63.6811
lradius 35.0668
lwrist -23.0109
lhand -41.0993 -3.99202
lfingers 7.12502
lthumb -14.0273 25.5147
rfemur -7.42251 10.5324 17.5798
rtibia 28.1823
rfoot -15.3664 -13.2522
rtoes -10.7881
lfemur -6.04438 -11.131 -17.0639
ltibia 24.6046
lfoot -13.4092 7.40608
ltoes -12.4993
2633
root 0.290101 15.8877 -0.18606 -0.459135 0.488803 -0.517068
lowerback 13.1506 0.267543 -1.22235
upperback -0.577032 0.103824 -0.748157
thorax -8.01234 0.0842533 -0.125406
lowerneck -15.4289 -8.03872 -11.7527
upperneck 36.602 -12.0169 9.03805
head 17.3857 -5.43986 3.74202
rclavicle -7.70291e-016 3.97569e-015
rhumerus 49.2158 10.1562 -65.5476
rradius 34.3173
rwrist 44.6144
rhand -45.2754 35.1162
rfingers 7.12502
rthumb -18.0486 5.93362
lclavicle -7.70291e-016 3.97569e-015
lhumerus 48.7129 -12.4242 63.6333
lradius 35.0766
lwrist -22.9843
lhand -41.0546 -3.89096
lfingers 7.12502
lthumb -13.9842 25.6187
rfemur -7.40148 10.5563 17.5861
rtibia 28.1705
rfoot -15.4113 -13.2312
rtoes -10.8504
lfemur -6.02536 -11.108 -17.0651
ltibia 24.6202
lfoot -13.4113 7.40637
ltoes -12.6987
2634
root 0.289996 15.8884 -0.189089 -0.465513 0.480751 -0.592336
lowerback 13.124 0.2641 -1.16827
upperback -0.540678 0.110908 -0.720457
thorax -7.95797 0.0858014 -0.127568
lowerneck -15.4614 -8.03642 -11.6335
upperneck 36.5384 -11.9888 8.91022
head 17.3294 -5.42661 3.66459
rclavicle -1.37658e-014 -1.23246e-014
rhumerus 49.2644 10.1516 -65.5216
rradius 34.3412
rwrist 44.6467
rhand -45.3363 35.1573
rfingers 7.12502
rthumb -18.1073 5.98018
lclavicle -1.37658e-014 -1.23246e-014
lhumerus 48.7573 -12.3696 63.6964
lradius 35.0072
lwrist -23.0528
lhand -41.2161 -4.11062
lfingers 7.12502
lthumb -14.1398 25.3882
rfemur -7.39601 10.611 17.6742
rtibia 28.1588
rfoot -15.4471 -13.2435
rtoes -10.6112
lfemur -6.05197 -11.0814 -16.9729
ltibia 24.6383
lfoot -13.4039 7.40981
ltoes -12.8209
2635
root 0.290142 15.889 -0.192691 -0.488935 0.469948 -0.667956
lowerback 13.1459 0.256272 -1.13144
upperback -0.514209 0.109895 -0.674433
thorax -7.94185 0.0847104 -0.0991883
lowerneck -15.5094 -8.02017 -11.5518
upperneck 36.4953 -11.9358 8.80307
head 17.2903 -5.40544 3.60922
rclavicle 5.04416e-015 -5.1684e-015
rhumerus 49.3077 10.208 -65.4243
rradius 34.3784
rwrist 44.5661
rhand -45.4266 35.2433
rfingers 7.12502
rthumb -18.1941 6.07422
lclavicle 5.04416e-015 -5.1684e-015
lhumerus 48.7737 -12.3308 63.7056
lradius 34.9771
lwrist -23.0403
lhand -41.2889 -4.38727
lfingers 7.12502
lthumb -14.21 25.1067
rfemur -7.37537 10.653 17.7613
rtibia 28.1275
rfoot -15.3975 -13.2658
rtoes -10.576
lfemur -6.06893 -11.0657 -16.8822
ltibia 24.681
lfoot -13.4317 7.35403
ltoes -12.3623
2636
root 0.290523 15.8884 -0.195636 -0.474568 0.472672 -0.63163
lowerback 13.1501 0.264036 -1.18242
upperback -0.530823 0.111339 -0.682293
thorax -7.96227 0.0874445 -0.0791314
lowerneck -15.5183 -8.02308 -11.5286
upperneck 36.5326 -11.9422 8.77973
head 17.3094 -5.4075 3.5942
rclavicle -7.70291e-015 -1.23246e-014
rhumerus 49.293 10.2331 -65.3889
rradius 34.3801
rwrist 44.5242
rhand -45.5513 35.3446
rfingers 7.12502
rthumb -18.314 6.18675
lclavicle -7.70291e-015 -1.23246e-014
lhumerus 48.7629 -12.3589 63.7147
lradius 34.9607
lwrist -23.0777
lhand -41.5893 -4.17598
lfingers 7.12502
lthumb -14.4995 25.2974
rfemur -7.38291 10.6807 17.7186
rtibia 28.0752
rfoot -15.3041 -13.3309
rtoes -10.9052
lfemur -6.11469 -11.0955 -16.9137
ltibia 24.7367
lfoot -13.5074 7.28254
ltoes -11.9429
2637
root 0.290449 15.8869 -0.197303 -0.490968 0.493262 -0.708119
lowerback 13.1434 0.25699 -1.12194
upperback -0.518038 0.113677 -0.657749
thorax -7.94456 0.0865485 -0.0875706
lowerneck -15.5212 -8.02617 -11.4912
upperneck 36.5207 -11.946 8.75084
head 17.2977 -5.40733 3.57301
rclavicle 1.22004e-014 6.36111e-015
rhumerus 49.2979 10.236 -65.3638
rradius 34.3858
rwrist 44.5072
rhand -45.568 35.5568
rfingers 7.12502
rthumb -18.3301 6.40043
lclavicle 1.22004e-014 6.36111e-015
lhumerus 48.7617 -12.3532 63.7548
lradius 34.9521
lwrist -23.0962
lhand -41.9332 -3.97316
lfingers 7.12502
lthumb -14.8308 25.4761
rfemur -7.35072 10.6399 17.8166
rtibia 28.0429
rfoot -15.2024 -13.4064
rtoes -11.2636
lfemur -6.11379 -11.1027 -16.8288
ltibia 24.7591
lfoot -13.505 7.26461
ltoes -12.086
